<svg xmlns="http://www.w3.org/2000/svg" data-name="Layer 1" viewBox="0 0 100 100" x="0px" y="0px"><title>108all</title><path d="M18.17,72.11l31.18,7h0a2.9,2.9,0,0,0,1.27,0h0l31.18-7a9,9,0,0,0,7-8.78V19.87a9,9,0,0,0-11-8.78L50,17.31,22.08,11.08a9,9,0,0,0-11,8.78V63.32A9,9,0,0,0,18.17,72.11ZM79.22,16.94a3,3,0,0,1,3.65,2.93V63.32a3,3,0,0,1-2.35,2.93L53,72.39V22.79Zm-62.1,2.93a3,3,0,0,1,3-3,3,3,0,0,1,.66.07L47,22.79v49.6L19.47,66.25a3,3,0,0,1-2.35-2.93Z"/><path d="M5.12,21.38a3,3,0,0,0-3,3V64.91A16.9,16.9,0,0,0,15.43,81.5l33.92,7.56a3,3,0,0,0,1.3,0L84.57,81.5a16.9,16.9,0,0,0,13.3-16.59V24.38a3,3,0,1,0-6,0V64.91a10.94,10.94,0,0,1-8.61,10.74L50,83.06,16.73,75.65A10.94,10.94,0,0,1,8.12,64.91V24.38A3,3,0,0,0,5.12,21.38Z"/></svg>